<svg xmlns="http://www.w3.org/2000/svg" xmlns:xlink="http://www.w3.org/1999/xlink" width="500" zoomAndPan="magnify" viewBox="0 0 375 374.999991" height="500" preserveAspectRatio="xMidYMid meet" version="1.0"><defs><clipPath id="f6a38f49f4"><path d="M 111.863281 184 L 119 184 L 119 191 L 111.863281 191 Z M 111.863281 184 " clip-rule="nonzero"/></clipPath><clipPath id="390f41cd92"><path d="M 257 184 L 263.363281 184 L 263.363281 191 L 257 191 Z M 257 184 " clip-rule="nonzero"/></clipPath><clipPath id="7106c0a200"><path d="M 178 177.855469 L 198 177.855469 L 198 197.355469 L 178 197.355469 Z M 178 177.855469 " clip-rule="nonzero"/></clipPath></defs><path fill="#000000" d="M 171.136719 191.363281 C 168.585938 192.234375 165.816406 190.855469 164.949219 188.277344 C 164.085938 185.703125 165.453125 182.90625 168.003906 182.03125 C 168.792969 181.761719 169.605469 181.707031 170.371094 181.835938 C 168.742188 180.839844 166.710938 180.554688 164.765625 181.21875 C 161.273438 182.414062 159.402344 186.246094 160.585938 189.773438 C 161.773438 193.300781 165.5625 195.191406 169.058594 193.996094 C 171 193.332031 172.4375 191.851562 173.132812 190.0625 C 172.601562 190.636719 171.925781 191.09375 171.132812 191.363281 Z M 171.136719 191.363281 " fill-opacity="1" fill-rule="nonzero"/><path fill="#000000" d="M 134.921875 190.289062 C 133.15625 190.890625 131.238281 189.9375 130.636719 188.152344 C 130.035156 186.367188 130.984375 184.425781 132.75 183.820312 C 133.296875 183.632812 133.859375 183.597656 134.390625 183.6875 C 133.265625 182.996094 131.855469 182.796875 130.507812 183.257812 C 128.089844 184.085938 126.789062 186.742188 127.613281 189.1875 C 128.4375 191.628906 131.0625 192.941406 133.480469 192.109375 C 134.828125 191.652344 135.824219 190.625 136.308594 189.382812 C 135.9375 189.78125 135.46875 190.097656 134.921875 190.289062 Z M 134.921875 190.289062 " fill-opacity="1" fill-rule="nonzero"/><path fill="#000000" d="M 154.03125 187.605469 C 154.03125 187.960938 153.996094 188.3125 153.925781 188.660156 C 153.859375 189.007812 153.757812 189.347656 153.621094 189.675781 C 153.488281 190.003906 153.324219 190.316406 153.128906 190.609375 C 152.933594 190.90625 152.710938 191.179688 152.460938 191.429688 C 152.214844 191.679688 151.941406 191.90625 151.652344 192.101562 C 151.359375 192.300781 151.050781 192.464844 150.726562 192.601562 C 150.398438 192.738281 150.066406 192.839844 149.71875 192.910156 C 149.375 192.980469 149.027344 193.015625 148.675781 193.015625 C 148.324219 193.015625 147.976562 192.980469 147.632812 192.910156 C 147.285156 192.839844 146.953125 192.738281 146.628906 192.601562 C 146.300781 192.464844 145.992188 192.300781 145.703125 192.101562 C 145.410156 191.90625 145.140625 191.679688 144.890625 191.429688 C 144.640625 191.179688 144.417969 190.90625 144.222656 190.609375 C 144.027344 190.316406 143.863281 190.003906 143.730469 189.675781 C 143.59375 189.347656 143.492188 189.007812 143.425781 188.660156 C 143.355469 188.3125 143.320312 187.960938 143.320312 187.605469 C 143.320312 187.25 143.355469 186.898438 143.425781 186.550781 C 143.492188 186.203125 143.59375 185.863281 143.730469 185.539062 C 143.863281 185.210938 144.027344 184.898438 144.222656 184.601562 C 144.417969 184.308594 144.640625 184.035156 144.890625 183.78125 C 145.140625 183.53125 145.410156 183.308594 145.703125 183.109375 C 145.992188 182.914062 146.300781 182.746094 146.628906 182.609375 C 146.953125 182.476562 147.285156 182.371094 147.632812 182.304688 C 147.976562 182.234375 148.324219 182.199219 148.675781 182.199219 C 149.027344 182.199219 149.375 182.234375 149.71875 182.304688 C 150.066406 182.371094 150.398438 182.476562 150.726562 182.609375 C 151.050781 182.746094 151.359375 182.914062 151.652344 183.109375 C 151.941406 183.308594 152.214844 183.53125 152.460938 183.78125 C 152.710938 184.035156 152.933594 184.308594 153.128906 184.601562 C 153.324219 184.898438 153.488281 185.210938 153.621094 185.539062 C 153.757812 185.863281 153.859375 186.203125 153.925781 186.550781 C 153.996094 186.898438 154.03125 187.25 154.03125 187.605469 Z M 154.03125 187.605469 " fill-opacity="1" fill-rule="nonzero"/><g clip-path="url(#f6a38f49f4)"><path fill="#000000" d="M 118.09375 187.605469 C 118.09375 188.023438 118.011719 188.421875 117.855469 188.808594 C 117.699219 189.195312 117.472656 189.53125 117.179688 189.828125 C 116.890625 190.121094 116.554688 190.347656 116.171875 190.507812 C 115.792969 190.667969 115.394531 190.746094 114.984375 190.746094 C 114.570312 190.746094 114.171875 190.667969 113.792969 190.507812 C 113.410156 190.347656 113.074219 190.121094 112.785156 189.828125 C 112.492188 189.53125 112.265625 189.195312 112.109375 188.808594 C 111.953125 188.421875 111.871094 188.023438 111.871094 187.605469 C 111.871094 187.191406 111.953125 186.789062 112.109375 186.40625 C 112.265625 186.019531 112.492188 185.679688 112.785156 185.386719 C 113.074219 185.089844 113.410156 184.863281 113.792969 184.703125 C 114.171875 184.546875 114.570312 184.464844 114.984375 184.464844 C 115.394531 184.464844 115.792969 184.546875 116.171875 184.703125 C 116.554688 184.863281 116.890625 185.089844 117.179688 185.386719 C 117.472656 185.679688 117.699219 186.019531 117.855469 186.40625 C 118.011719 186.789062 118.09375 187.191406 118.09375 187.605469 Z M 118.09375 187.605469 " fill-opacity="1" fill-rule="nonzero"/></g><path fill="#000000" d="M 204.113281 191.363281 C 206.664062 192.234375 209.433594 190.855469 210.296875 188.277344 C 211.164062 185.703125 209.796875 182.90625 207.246094 182.03125 C 206.457031 181.761719 205.644531 181.707031 204.878906 181.835938 C 206.503906 180.839844 208.539062 180.554688 210.480469 181.21875 C 213.972656 182.414062 215.847656 186.246094 214.660156 189.773438 C 213.476562 193.300781 209.683594 195.191406 206.191406 193.996094 C 204.25 193.332031 202.808594 191.851562 202.117188 190.0625 C 202.648438 190.636719 203.324219 191.09375 204.113281 191.363281 Z M 204.113281 191.363281 " fill-opacity="1" fill-rule="nonzero"/><path fill="#000000" d="M 240.324219 190.289062 C 242.09375 190.890625 244.011719 189.9375 244.613281 188.152344 C 245.210938 186.367188 244.265625 184.425781 242.496094 183.820312 C 241.949219 183.632812 241.386719 183.597656 240.855469 183.6875 C 241.984375 182.996094 243.394531 182.796875 244.738281 183.257812 C 247.160156 184.085938 248.457031 186.742188 247.636719 189.1875 C 246.816406 191.628906 244.1875 192.941406 241.765625 192.109375 C 240.421875 191.652344 239.421875 190.625 238.941406 189.382812 C 239.308594 189.78125 239.777344 190.097656 240.324219 190.289062 Z M 240.324219 190.289062 " fill-opacity="1" fill-rule="nonzero"/><path fill="#000000" d="M 231.925781 187.605469 C 231.925781 187.960938 231.890625 188.3125 231.824219 188.660156 C 231.753906 189.007812 231.652344 189.347656 231.519531 189.675781 C 231.382812 190.003906 231.21875 190.316406 231.023438 190.609375 C 230.828125 190.90625 230.605469 191.179688 230.359375 191.429688 C 230.109375 191.679688 229.839844 191.90625 229.546875 192.101562 C 229.253906 192.300781 228.945312 192.464844 228.621094 192.601562 C 228.296875 192.738281 227.960938 192.839844 227.617188 192.910156 C 227.273438 192.980469 226.925781 193.015625 226.574219 193.015625 C 226.222656 193.015625 225.871094 192.980469 225.527344 192.910156 C 225.183594 192.839844 224.847656 192.738281 224.523438 192.601562 C 224.199219 192.464844 223.890625 192.300781 223.597656 192.101562 C 223.304688 191.90625 223.035156 191.679688 222.785156 191.429688 C 222.539062 191.179688 222.316406 190.90625 222.121094 190.609375 C 221.925781 190.316406 221.761719 190.003906 221.625 189.675781 C 221.492188 189.347656 221.390625 189.007812 221.320312 188.660156 C 221.253906 188.3125 221.21875 187.960938 221.21875 187.605469 C 221.21875 187.25 221.253906 186.898438 221.320312 186.550781 C 221.390625 186.203125 221.492188 185.863281 221.625 185.539062 C 221.761719 185.210938 221.925781 184.898438 222.121094 184.601562 C 222.316406 184.308594 222.539062 184.035156 222.785156 183.78125 C 223.035156 183.53125 223.304688 183.308594 223.597656 183.109375 C 223.890625 182.914062 224.199219 182.746094 224.523438 182.609375 C 224.847656 182.476562 225.183594 182.371094 225.527344 182.304688 C 225.871094 182.234375 226.222656 182.199219 226.574219 182.199219 C 226.925781 182.199219 227.273438 182.234375 227.617188 182.304688 C 227.960938 182.371094 228.296875 182.476562 228.621094 182.609375 C 228.945312 182.746094 229.253906 182.914062 229.546875 183.109375 C 229.839844 183.308594 230.109375 183.53125 230.359375 183.78125 C 230.605469 184.035156 230.828125 184.308594 231.023438 184.601562 C 231.21875 184.898438 231.382812 185.210938 231.519531 185.539062 C 231.652344 185.863281 231.753906 186.203125 231.824219 186.550781 C 231.890625 186.898438 231.925781 187.25 231.925781 187.605469 Z M 231.925781 187.605469 " fill-opacity="1" fill-rule="nonzero"/><g clip-path="url(#390f41cd92)"><path fill="#000000" d="M 263.375 187.605469 C 263.375 188.023438 263.296875 188.421875 263.140625 188.808594 C 262.980469 189.195312 262.757812 189.53125 262.464844 189.828125 C 262.171875 190.121094 261.835938 190.347656 261.457031 190.507812 C 261.074219 190.667969 260.679688 190.746094 260.265625 190.746094 C 259.855469 190.746094 259.457031 190.667969 259.074219 190.507812 C 258.695312 190.347656 258.359375 190.121094 258.066406 189.828125 C 257.777344 189.53125 257.550781 189.195312 257.394531 188.808594 C 257.234375 188.421875 257.15625 188.023438 257.15625 187.605469 C 257.15625 187.191406 257.234375 186.789062 257.394531 186.40625 C 257.550781 186.019531 257.777344 185.679688 258.066406 185.386719 C 258.359375 185.089844 258.695312 184.863281 259.074219 184.703125 C 259.457031 184.546875 259.855469 184.464844 260.265625 184.464844 C 260.679688 184.464844 261.074219 184.546875 261.457031 184.703125 C 261.835938 184.863281 262.171875 185.089844 262.464844 185.386719 C 262.757812 185.679688 262.980469 186.019531 263.140625 186.40625 C 263.296875 186.789062 263.375 187.191406 263.375 187.605469 Z M 263.375 187.605469 " fill-opacity="1" fill-rule="nonzero"/></g><g clip-path="url(#7106c0a200)"><path fill="#000000" d="M 197.199219 187.605469 C 197.199219 188.242188 197.140625 188.871094 197.015625 189.492188 C 196.894531 190.117188 196.710938 190.722656 196.472656 191.308594 C 196.230469 191.894531 195.9375 192.453125 195.585938 192.980469 C 195.238281 193.507812 194.839844 193.996094 194.394531 194.445312 C 193.949219 194.894531 193.46875 195.296875 192.945312 195.648438 C 192.421875 196 191.871094 196.300781 191.289062 196.542969 C 190.707031 196.785156 190.109375 196.96875 189.492188 197.09375 C 188.875 197.214844 188.253906 197.277344 187.625 197.277344 C 186.996094 197.277344 186.371094 197.214844 185.757812 197.09375 C 185.140625 196.96875 184.539062 196.785156 183.960938 196.542969 C 183.378906 196.300781 182.828125 196 182.304688 195.648438 C 181.78125 195.296875 181.296875 194.894531 180.851562 194.445312 C 180.410156 193.996094 180.011719 193.507812 179.664062 192.980469 C 179.3125 192.453125 179.019531 191.894531 178.777344 191.308594 C 178.535156 190.722656 178.355469 190.117188 178.230469 189.492188 C 178.109375 188.871094 178.046875 188.242188 178.046875 187.605469 C 178.046875 186.972656 178.109375 186.34375 178.230469 185.71875 C 178.355469 185.097656 178.535156 184.492188 178.777344 183.90625 C 179.019531 183.320312 179.3125 182.761719 179.664062 182.234375 C 180.011719 181.707031 180.410156 181.214844 180.851562 180.769531 C 181.296875 180.320312 181.78125 179.917969 182.304688 179.566406 C 182.828125 179.210938 183.378906 178.914062 183.960938 178.671875 C 184.539062 178.429688 185.140625 178.246094 185.757812 178.121094 C 186.371094 177.996094 186.996094 177.933594 187.625 177.933594 C 188.253906 177.933594 188.875 177.996094 189.492188 178.121094 C 190.109375 178.246094 190.707031 178.429688 191.289062 178.671875 C 191.871094 178.914062 192.421875 179.210938 192.945312 179.566406 C 193.46875 179.917969 193.949219 180.320312 194.394531 180.769531 C 194.839844 181.214844 195.238281 181.707031 195.585938 182.234375 C 195.9375 182.761719 196.230469 183.320312 196.472656 183.90625 C 196.710938 184.492188 196.894531 185.097656 197.015625 185.71875 C 197.140625 186.34375 197.199219 186.972656 197.199219 187.605469 Z M 197.199219 187.605469 " fill-opacity="1" fill-rule="nonzero"/></g></svg>